<?xml version="1.0" encoding="UTF-8" standalone="no"?>
<svg
   xmlns:dc="http://purl.org/dc/elements/1.1/"
   xmlns:cc="http://creativecommons.org/ns#"
   xmlns:rdf="http://www.w3.org/1999/02/22-rdf-syntax-ns#"
   xmlns:svg="http://www.w3.org/2000/svg"
   xmlns="http://www.w3.org/2000/svg"
   xmlns:sodipodi="http://sodipodi.sourceforge.net/DTD/sodipodi-0.dtd"
   xmlns:inkscape="http://www.inkscape.org/namespaces/inkscape"
   width="532"
   height="130"
   viewBox="0 0 425.59973 103.99982"
   version="1.2"
   id="svg8197"
   inkscape:version="0.48.2 r9819"
   sodipodi:docname="indented.svg">
  <metadata
     id="metadata10349">
    <rdf:RDF>
      <cc:Work
         rdf:about="">
        <dc:format>image/svg+xml</dc:format>
        <dc:type
           rdf:resource="http://purl.org/dc/dcmitype/StillImage" />
        <dc:title>Qt Svg Document</dc:title>
      </cc:Work>
    </rdf:RDF>
  </metadata>
  <sodipodi:namedview
     pagecolor="#ffffff"
     bordercolor="#666666"
     borderopacity="1"
     objecttolerance="10"
     gridtolerance="10"
     guidetolerance="10"
     inkscape:pageopacity="0"
     inkscape:pageshadow="2"
     inkscape:window-width="2560"
     inkscape:window-height="1392"
     id="namedview10347"
     showgrid="false"
     inkscape:zoom="2.8284271"
     inkscape:cx="365.9217"
     inkscape:cy="77.070678"
     inkscape:window-x="0"
     inkscape:window-y="0"
     inkscape:window-maximized="1"
     inkscape:current-layer="svg8197" />
  <title
     id="title8199">Qt Svg Document</title>
  <desc
     id="desc8201">Generated with Qt</desc>
  <defs
     id="defs8203" />
  <g
     style="font-size:13px;font-style:normal;font-weight:400;fill:none;stroke:#000000;stroke-width:1;stroke-linecap:square;stroke-linejoin:bevel;stroke-opacity:1;font-family:Lucida Grande"
     id="g8207"
     font-style="normal"
     font-weight="400"
     font-size="13"
     transform="matrix(2.1729779,0,0,2.1729834,-9.0543208,-690.95021)" />
  <g
     style="font-size:13px;font-style:normal;font-weight:400;fill:none;stroke:#000000;stroke-width:1;stroke-linecap:square;stroke-linejoin:bevel;stroke-opacity:1;font-family:Lucida Grande"
     id="g8213"
     font-style="normal"
     font-weight="400"
     font-size="13"
     transform="matrix(2.1729779,0,0,2.1729834,-9.0543208,-690.95021)" />
  <g
     style="font-size:13px;font-style:normal;font-weight:400;fill:#000000;fill-opacity:1;fill-rule:evenodd;stroke:#000000;stroke-width:1;stroke-linecap:square;stroke-linejoin:bevel;stroke-opacity:1;font-family:Lucida Grande"
     id="g8215"
     font-style="normal"
     font-weight="400"
     font-size="13"
     transform="matrix(2.1706354,0,0,2.1671098,-9.0543208,-690.95021)" />
  <path
     id="polyline10089"
     style="font-size:13px;font-style:normal;font-weight:400;fill:#000000;fill-opacity:1;stroke:#ffffff;stroke-width:0.76912051;stroke-linecap:square;stroke-linejoin:miter;stroke-miterlimit:4;stroke-opacity:1;stroke-dasharray:none;font-family:Lucida Grande"
     d="m 8.8537472,12.619334 0,16.50528 24.7983098,0 0,49.515926 -24.7983098,0 0,16.50529 49.5966178,0 0,-16.50529 -8.266959,0 0,-49.515926 8.266959,0 0,-16.50528 z"
     inkscape:connector-curvature="0"
     sodipodi:nodetypes="ccccccccccccc" />
  <path
     id="polyline10141"
     style="font-size:13px;font-style:normal;font-weight:400;fill:#000000;fill-opacity:1;stroke:#ffffff;stroke-width:0.76912051;stroke-linecap:square;stroke-linejoin:miter;stroke-miterlimit:4;stroke-opacity:1;stroke-dasharray:none;font-family:Lucida Grande"
     d="m 83.790514,54.699715 4.795621,23.940825 -8.265663,0 3.306779,16.50529 24.961569,0 0,-16.50529 8.26568,0 0,-49.515926 -8.26568,0 0,-16.50528 -16.532621,0 0,16.50528 8.266951,0 0,23.940834 -4.795613,-23.940834 -8.266958,0 -3.3068,-16.50528 -24.961573,0 0,16.50528 8.266959,0 0,49.515926 -8.266959,0 0,16.50529 16.532645,0 0,-16.50529 8.265663,0 z"
     inkscape:connector-curvature="0"
     sodipodi:nodetypes="ccccccccccccccccccccccccccc" />
  <path
     id="polyline10177"
     style="font-size:13px;font-style:normal;font-weight:400;fill:#000000;fill-opacity:1;stroke:#ffffff;stroke-width:0.76912051;stroke-linecap:square;stroke-linejoin:miter;stroke-miterlimit:4;stroke-opacity:1;stroke-dasharray:none;font-family:Lucida Grande"
     d="m 133.92896,29.124614 0.89408,0.02423 0.89278,0.07249 0.88759,0.120752 0.87854,0.16838 0.86946,0.215786 0.85521,0.262347 0.84095,0.308293 0.8228,0.353171 0.8021,0.397164 0.77875,0.439966 0.75542,0.481489 0.72693,0.521484 0.69713,0.560006 0.66731,0.596896 0.63232,0.632092 0.59865,0.665463 0.56108,0.696757 0.52216,0.726011 0.48205,0.753162 0.44054,0.778139 0.39781,0.80077 0.35375,0.82121 0.3084,0.839063 0.26304,0.854465 0.21638,0.86753 0.16839,0.877865 0.12054,0.885778 0.0737,0.89094 0.0234,0.893536 0,16.505405 -0.0234,0.893526 -0.0737,0.89095 -0.12054,0.885758 -0.16839,0.877865 -0.21638,0.86754 -0.26304,0.854465 -0.3084,0.839063 -0.35375,0.821219 -0.39781,0.80078 -0.44054,0.778129 -0.48205,0.753172 -0.52216,0.726127 -0.56108,0.696631 -0.59865,0.665444 -0.63232,0.632102 -0.66731,0.596876 -0.69713,0.560036 -0.72693,0.521483 -0.75542,0.481499 -0.77875,0.439966 -0.8021,0.397155 -0.8228,0.353161 -0.84095,0.308292 -0.85521,0.262348 -0.86946,0.215786 -0.87854,0.16838 -0.88759,0.120752 -0.89278,0.07249 -0.89408,0.02403 z m 29.23245,48.435465 0.55718,-1.102045 0.51569,-1.122138 0.47296,-1.140472 0.43019,-1.15745 0.38614,-1.172698 0.34208,-1.186283 0.29802,-1.198185 0.25269,-1.208529 0.20723,-1.217096 0.16066,-1.223921 0.11657,-1.229104 0.0685,-1.232583 0.0234,-1.234305 0,-16.505376 -0.0234,-1.234295 -0.0685,-1.232594 -0.11657,-1.229103 -0.16066,-1.223931 -0.20723,-1.217067 -0.25269,-1.20853 -0.29802,-1.198213 -0.34208,-1.186273 -0.38614,-1.172698 -0.43019,-1.157441 -0.47296,-1.140482 -0.51569,-1.122118 -0.55718,-1.102074 -0.59866,-1.080461 -8.26568,0 -0.66213,-1.096113 -0.7049,-1.069607 -0.74635,-1.041524 -0.78524,-1.011885 -0.8241,-0.980725 -0.86168,-0.948057 -0.89797,-0.914014 -0.93294,-0.878548 -0.96665,-0.841784 -0.99773,-0.803741 -1.02884,-0.764516 -1.05734,-0.724108 -1.08456,-0.682633 -1.11046,-0.64013 -1.13511,-0.596627 -1.15581,-0.552296 -1.17786,-0.507072 -1.19597,-0.461107 -1.21412,-0.41446 -1.22839,-0.367179 -1.24135,-0.319339 -1.25301,-0.271038 -1.26336,-0.222305 -1.26986,-0.173186 -1.27632,-0.123887 -1.2802,-0.07441 -1.28281,-0.0248 -16.53135,0 0,16.50527 8.26566,0 0,49.515936 -8.26566,0 0,16.50526 16.53135,0 1.28281,-0.0249 1.2802,-0.07441 1.27632,-0.123877 1.26986,-0.173398 1.26336,-0.222267 1.25301,-0.271019 1.24135,-0.319396 1.22839,-0.36715 1.21412,-0.414498 1.19597,-0.46105 1.17786,-0.507101 1.15581,-0.552277 1.13511,-0.596626 1.11046,-0.640101 1.08456,-0.682672 1.05734,-0.72406 1.02884,-0.764555 0.99773,-0.803741 0.96665,-0.841774 0.93294,-0.878528 0.89797,-0.913976 0.86168,-0.948124 0.8241,-0.980706 0.78524,-1.011914 0.74635,-1.041514 0.7049,-1.069607 0.66213,-1.096113 8.26568,0 z"
     inkscape:connector-curvature="0"
     sodipodi:nodetypes="cccccccccccccccccccccccccccccccccccccccccccccccccccccccccccccccccccccccccccccccccccccccccccccccccccccccccccccccccccccccccccccccccccccccccccccccccccccccccc" />
  <path
     id="polyline10209"
     style="font-size:13px;font-style:normal;font-weight:400;fill:#000000;fill-opacity:1;stroke:#ffffff;stroke-width:0.76912051;stroke-linecap:square;stroke-linejoin:miter;stroke-miterlimit:4;stroke-opacity:1;stroke-dasharray:none;font-family:Lucida Grande"
     d="m 159.26912,12.619334 0,16.50528 8.26568,0 0,49.515926 -8.26568,0 0,16.50529 49.59664,0 0,-16.50529 -24.79833,0 0,-16.50527 33.064,0 0,-16.505376 -33.064,0 0,-16.50528 24.79833,0 0,-16.50528 z"
     inkscape:connector-curvature="0"
     sodipodi:nodetypes="ccccccccccccccccc" />
  <path
     id="polyline10241"
     style="font-size:13px;font-style:normal;font-weight:400;fill:#000000;fill-opacity:1;stroke:#ffffff;stroke-width:0.76912051;stroke-linecap:square;stroke-linejoin:miter;stroke-miterlimit:4;stroke-opacity:1;stroke-dasharray:none;font-family:Lucida Grande"
     d="m 334.48279,62.13527 33.064,0 0,-16.505376 -33.064,0 0,-16.50528 24.79704,0 0,-16.50528 -49.59534,0 0,16.50528 8.26566,0 0,49.515926 -8.26566,0 0,16.50529 49.59534,0 0,-16.50529 -24.79704,0 z"
     inkscape:connector-curvature="0"
     sodipodi:nodetypes="ccccccccccccccccc" />
  <path
     id="polyline10277"
     style="font-size:13px;font-style:normal;font-weight:400;fill:#000000;fill-opacity:1;stroke:#ffffff;stroke-width:0.76912051;stroke-linecap:square;stroke-linejoin:miter;stroke-miterlimit:4;stroke-opacity:1;stroke-dasharray:none;font-family:Lucida Grande"
     d="m 401.12865,63.028825 -0.0725,0.89095 -0.12054,0.885758 -0.16985,0.877856 -0.21509,0.867549 -0.26304,0.854436 -0.30967,0.839082 -0.35377,0.82121 -0.39779,0.80077 -0.44054,0.77813 -0.48205,0.75319 -0.52218,0.726108 -0.56107,0.69666 -0.59734,0.665463 -0.63362,0.632073 -0.66603,0.596877 -0.69841,0.560035 -0.72693,0.521484 -0.75414,0.481479 -0.78005,0.439985 -0.80207,0.397136 -0.82282,0.35319 -0.83965,0.308264 -0.85649,0.262347 -0.86817,0.215786 -0.87983,0.16838 -0.88759,0.120752 -0.89148,0.07249 -0.89538,0.02403 0,-49.515936 0.89538,0.02404 0.89148,0.07249 0.88759,0.120742 0.87983,0.16839 0.86817,0.215776 0.85649,0.262357 0.83965,0.308283 0.82282,0.353171 0.80207,0.397164 0.78005,0.439966 0.75414,0.481499 0.72693,0.521455 0.69841,0.560025 0.66603,0.596925 0.63362,0.632083 0.59734,0.665443 0.56107,0.696757 0.52218,0.726011 0.48205,0.753162 0.44054,0.778139 0.39779,0.800771 0.35377,0.821209 0.30967,0.839063 0.26304,0.854465 0.21509,0.86753 0.16985,0.877884 0.12054,0.885759 0.0725,0.89094 0.0246,0.893546 0,16.505395 z m 12.7244,14.531254 0.55716,-1.102045 0.51571,-1.122138 0.47298,-1.140472 0.43018,-1.15745 0.38743,-1.172698 0.34208,-1.186283 0.29802,-1.198185 0.25139,-1.208529 0.20724,-1.217096 0.1619,-1.223921 0.11532,-1.229104 0.0685,-1.232583 0.0234,-1.234305 0,-16.505376 -0.0234,-1.234295 -0.0685,-1.232594 -0.11532,-1.229103 -0.1619,-1.223931 -0.20724,-1.217067 -0.25139,-1.20853 -0.29802,-1.198213 -0.34208,-1.186273 -0.38743,-1.172698 -0.43018,-1.157441 -0.47298,-1.140482 -0.51571,-1.122118 -0.55716,-1.102074 -0.59736,-1.080461 -8.26696,0 -0.66214,-1.096113 -0.70489,-1.069607 -0.74508,-1.041524 -0.78652,-1.011885 -0.82411,-0.980725 -0.86168,-0.948057 -0.89796,-0.914014 -0.93165,-0.878548 -0.96663,-0.841784 -0.99775,-0.803741 -1.02885,-0.764516 -1.05733,-0.724108 -1.08583,-0.682633 -1.11049,-0.64013 -1.1338,-0.596627 -1.15709,-0.552296 -1.17785,-0.507072 -1.196,-0.461107 -1.21282,-0.41446 -1.2284,-0.367179 -1.24264,-0.319339 -1.253,-0.271038 -1.26207,-0.222305 -1.27114,-0.173186 -1.27633,-0.123887 -1.28023,-0.07441 -1.28149,-0.0248 -16.53266,0 0,16.50527 8.26569,0 0,49.515936 -8.26569,0 0,16.50526 16.53266,0 1.28149,-0.0249 1.28023,-0.07441 1.27633,-0.123877 1.27114,-0.173398 1.26207,-0.222267 1.253,-0.271019 1.24264,-0.319396 1.2284,-0.36715 1.21282,-0.414498 1.196,-0.46105 1.17785,-0.507101 1.15709,-0.552277 1.1338,-0.596626 1.11049,-0.640101 1.08583,-0.682672 1.05733,-0.72406 1.02885,-0.764555 0.99775,-0.803741 0.96663,-0.841774 0.93165,-0.878528 0.89796,-0.913976 0.86168,-0.948124 0.82411,-0.980706 0.78652,-1.011914 0.74508,-1.041514 0.70489,-1.069607 0.66214,-1.096113 8.26696,0 z"
     inkscape:connector-curvature="0"
     sodipodi:nodetypes="cccccccccccccccccccccccccccccccccccccccccccccccccccccccccccccccccccccccccccccccccccccccccccccccccccccccccccccccccccccccccccccccccccccccccccccccccccccccccc" />
  <path
     id="polyline10287"
     style="font-size:13px;font-style:normal;font-weight:400;fill:#000000;fill-opacity:1;stroke:#ffffff;stroke-width:0.76912051;stroke-linecap:square;stroke-linejoin:miter;stroke-miterlimit:4;stroke-opacity:1;stroke-dasharray:none;font-family:Lucida Grande"
     d="m 284.34435,29.124614 0,49.515926 -8.26567,0 0,16.50529 16.53136,0 0,-16.50529 8.26695,0 0,-49.515926 8.26567,0 0,-16.50528 -49.59662,0 0,16.50528 z"
     inkscape:connector-curvature="0"
     sodipodi:nodetypes="ccccccccccccc" />
  <path
     id="polyline10339"
     style="font-size:13px;font-style:normal;font-weight:400;fill:#000000;fill-opacity:1;stroke:#ffffff;stroke-width:0.76912051;stroke-linecap:square;stroke-linejoin:miter;stroke-miterlimit:4;stroke-opacity:1;stroke-dasharray:none;font-family:Lucida Grande"
     d="m 234.20588,54.699715 4.79562,23.940825 -8.26568,0 3.30549,16.50529 24.96288,0 0,-16.50529 8.26566,0 0,-49.515926 -8.26566,0 0,-16.50528 -16.53264,0 0,16.50528 8.26566,0 0,23.940834 -4.79562,-23.940834 -8.26567,0 -3.30678,-16.50528 -24.96157,0 0,16.50528 8.26567,0 0,49.515926 -8.26567,0 0,16.50529 16.53135,0 0,-16.50529 8.26696,0 z"
     inkscape:connector-curvature="0"
     sodipodi:nodetypes="ccccccccccccccccccccccccccc" />
  <g
     style="font-size:13px;font-style:normal;font-weight:400;fill:#ffffff;fill-opacity:1;fill-rule:evenodd;stroke:#ffffff;stroke-width:1;stroke-linecap:square;stroke-linejoin:bevel;stroke-opacity:1;font-family:Lucida Grande"
     id="g10341"
     font-style="normal"
     font-weight="400"
     font-size="13"
     transform="matrix(2.1706354,0,0,2.1671098,-9.0543208,-690.95021)" />
  <g
     style="font-size:13px;font-style:normal;font-weight:400;fill:#ffffff;fill-opacity:1;fill-rule:evenodd;stroke:#ffffff;stroke-width:1;stroke-linecap:square;stroke-linejoin:bevel;stroke-opacity:1;font-family:Lucida Grande"
     id="g10343"
     font-style="normal"
     font-weight="400"
     font-size="13"
     transform="matrix(2.1729779,0,0,2.1729834,-9.0543208,-690.95021)" />
  <g
     style="font-size:13px;font-style:normal;font-weight:400;fill:none;stroke:#000000;stroke-width:1;stroke-linecap:square;stroke-linejoin:bevel;stroke-opacity:1;font-family:Lucida Grande"
     id="g10345"
     font-style="normal"
     font-weight="400"
     font-size="13"
     transform="matrix(2.1729779,0,0,2.1729834,-9.0543208,-690.95021)" />
</svg>
